<?xml version="1.0" encoding="UTF-8" standalone="no"?>
<!DOCTYPE svg PUBLIC "-//W3C//DTD SVG 1.1//EN" "http://www.w3.org/Graphics/SVG/1.1/DTD/svg11.dtd">
<svg width="100%" height="100%" viewBox="0 0 740 800" version="1.1" xmlns="http://www.w3.org/2000/svg" xmlns:xlink="http://www.w3.org/1999/xlink" xml:space="preserve" xmlns:serif="http://www.serif.com/" style="fill-rule:evenodd;clip-rule:evenodd;stroke-linejoin:round;stroke-miterlimit:2;">
    <g transform="matrix(1,0,0,1,-30,0)">
        <g>
            <path d="M82.755,0L82.755,800L358.617,800L358.617,606.895L441.375,606.895L441.375,800L717.244,800L717.244,0L82.755,0ZM275.859,524.137L193.1,524.137L193.1,441.378L275.859,441.378L275.859,524.137ZM275.859,358.62L193.1,358.62L193.1,275.861L275.859,275.861L275.859,358.62ZM275.859,193.103L193.1,193.103L193.1,110.345L275.859,110.345L275.859,193.103ZM441.375,524.137L358.617,524.137L358.617,441.378L441.375,441.378L441.375,524.137ZM441.375,358.62L358.617,358.62L358.617,275.861L441.375,275.861L441.375,358.62ZM441.375,193.103L358.617,193.103L358.617,110.345L441.375,110.345L441.375,193.103ZM606.9,524.137L524.134,524.137L524.134,441.378L606.9,441.378L606.9,524.137ZM606.9,358.62L524.134,358.62L524.134,275.861L606.9,275.861L606.9,358.62ZM606.9,193.103L524.134,193.103L524.134,110.345L606.9,110.345L606.9,193.103Z" style="fill-rule:nonzero;"/>
            <path d="M717.244,787.202L82.755,787.202L30,800L770,800L717.244,787.202Z"/>
        </g>
    </g>
</svg>
