<?xml version="1.0" encoding="UTF-8" standalone="no"?><!DOCTYPE svg PUBLIC "-//W3C//DTD SVG 1.1//EN" "http://www.w3.org/Graphics/SVG/1.1/DTD/svg11.dtd"><svg width="100%" height="100%" viewBox="0 0 14 13" version="1.1" xmlns="http://www.w3.org/2000/svg" xmlns:xlink="http://www.w3.org/1999/xlink" xml:space="preserve" xmlns:serif="http://www.serif.com/" style="fill-rule:evenodd;clip-rule:evenodd;stroke-linejoin:round;stroke-miterlimit:2;"><path d="M1.875,0c-0.497,0 -0.974,0.198 -1.326,0.549c-0.351,0.352 -0.549,0.829 -0.549,1.326l0,8.75c0,0.497 0.198,0.974 0.549,1.326c0.352,0.351 0.829,0.549 1.326,0.549l10,0c0.497,0 0.974,-0.198 1.326,-0.549c0.351,-0.352 0.549,-0.829 0.549,-1.326l0,-6.875c0,-0.497 -0.198,-0.974 -0.549,-1.326c-0.352,-0.351 -0.829,-0.549 -1.326,-0.549l-5.291,0l-0.878,-1.318c-0.232,-0.348 -0.623,-0.557 -1.04,-0.557l-2.791,0Z" style="fill-rule:nonzero;"/></svg>