<?xml version="1.0" encoding="UTF-8" standalone="no"?><!DOCTYPE svg PUBLIC "-//W3C//DTD SVG 1.1//EN" "http://www.w3.org/Graphics/SVG/1.1/DTD/svg11.dtd"><svg width="100%" height="100%" viewBox="0 0 15 12" version="1.1" xmlns="http://www.w3.org/2000/svg" xmlns:xlink="http://www.w3.org/1999/xlink" xml:space="preserve" xmlns:serif="http://www.serif.com/" style="fill-rule:evenodd;clip-rule:evenodd;stroke-linejoin:round;stroke-miterlimit:2;"><path id="🎨-Color" d="M9.842,4.998c0.604,-0 1.093,0.489 1.093,1.093l0,4.217c0,0.733 -0.019,0.837 -0.019,0.837l-6.861,0c0,0 0.007,-0.174 0.007,-0.837l0,-4.217c0,-0.604 0.489,-1.093 1.093,-1.093l4.687,-0Zm-8.749,-0l2.738,-0.001c-0.219,0.264 -0.36,0.595 -0.388,0.957l-0.006,0.137l0,2.905c0,0.708 -0.572,0.837 -0.972,0.837c-1.553,0 -2.465,0.091 -2.465,-1.462l-0,-2.28c-0,-0.604 0.489,-1.093 1.093,-1.093Zm10.073,-0.001l2.734,0.001c0.604,-0 1.094,0.489 1.094,1.093l-0,2.281c-0,1.552 -1.068,1.469 -2.621,1.469c-0.399,0 -0.848,-0.035 -0.818,-0.642l0.005,-0.203l0,-2.905c0,-0.416 -0.148,-0.797 -0.394,-1.094Zm-3.669,-4.997c1.207,0 2.186,0.979 2.186,2.187c0,1.207 -0.979,2.186 -2.186,2.186c-1.208,0 -2.187,-0.979 -2.187,-2.186c0,-1.208 0.979,-2.187 2.187,-2.187Zm5,0.625c1.035,-0 1.874,0.839 1.874,1.874c-0,1.035 -0.839,1.874 -1.874,1.874c-1.035,0 -1.875,-0.839 -1.875,-1.874c0,-1.035 0.84,-1.874 1.875,-1.874Zm-10,-0c1.035,-0 1.874,0.839 1.874,1.874c0,1.035 -0.839,1.874 -1.874,1.874c-1.035,0 -1.874,-0.839 -1.874,-1.874c-0,-1.035 0.839,-1.874 1.874,-1.874Z" style="fill-rule:nonzero;"/></svg>