<?xml version="1.0" encoding="UTF-8" standalone="no"?>
<!DOCTYPE svg PUBLIC "-//W3C//DTD SVG 1.1//EN" "http://www.w3.org/Graphics/SVG/1.1/DTD/svg11.dtd">
<svg width="100%" height="100%" viewBox="0 0 686 510" version="1.1" xmlns="http://www.w3.org/2000/svg" xmlns:xlink="http://www.w3.org/1999/xlink" xml:space="preserve" xmlns:serif="http://www.serif.com/" style="fill-rule:evenodd;clip-rule:evenodd;stroke-linejoin:round;stroke-miterlimit:2;">
    <g transform="matrix(1,0,0,1,-57.1429,-85.7143)">
        <g id="ðŸ”-Product-Icons">
            <g id="ic_fluent_people_team_28_filled">
                <path id="ðŸŽ¨-Color" d="M507.258,314.286C534.872,314.286 557.258,336.671 557.258,364.286L557.258,557.113C557.258,590.639 556.386,595.414 556.386,595.414L242.604,595.414C242.604,595.414 242.912,587.463 242.912,557.113L242.912,364.286C242.912,336.671 265.298,314.286 292.912,314.286L507.258,314.286ZM107.143,314.286L232.346,314.23C222.349,326.313 215.898,341.437 214.588,358.007L214.341,364.286L214.341,497.113C214.341,529.496 188.181,535.414 169.883,535.414C98.855,535.414 57.143,539.564 57.143,468.536L57.143,364.286C57.143,336.671 79.529,314.286 107.143,314.286ZM567.824,314.23L692.857,314.286C720.471,314.286 742.857,336.671 742.857,364.286L742.857,468.571C742.857,539.579 694.019,535.777 623.011,535.777C604.752,535.777 584.23,534.182 585.6,506.423L585.829,497.113L585.829,364.286C585.829,345.265 579.071,327.823 567.824,314.23ZM400,85.714C455.228,85.714 500,130.486 500,185.714C500,240.943 455.228,285.714 400,285.714C344.772,285.714 300,240.943 300,185.714C300,130.486 344.772,85.714 400,85.714ZM628.657,114.286C675.995,114.286 714.371,152.661 714.371,200C714.371,247.339 675.995,285.714 628.657,285.714C581.318,285.714 542.942,247.339 542.942,200C542.942,152.661 581.318,114.286 628.657,114.286ZM171.343,114.286C218.682,114.286 257.058,152.661 257.058,200C257.058,247.339 218.682,285.714 171.343,285.714C124.005,285.714 85.629,247.339 85.629,200C85.629,152.661 124.005,114.286 171.343,114.286Z" style="fill:rgb(33,33,33);fill-rule:nonzero;"/>
            </g>
        </g>
    </g>
</svg>
