<?xml version="1.0" encoding="UTF-8" standalone="no"?><!DOCTYPE svg PUBLIC "-//W3C//DTD SVG 1.1//EN" "http://www.w3.org/Graphics/SVG/1.1/DTD/svg11.dtd"><svg width="100%" height="100%" viewBox="0 0 13 14" version="1.1" xmlns="http://www.w3.org/2000/svg" xmlns:xlink="http://www.w3.org/1999/xlink" xml:space="preserve" xmlns:serif="http://www.serif.com/" style="fill-rule:evenodd;clip-rule:evenodd;stroke-linejoin:round;stroke-miterlimit:2;"><path d="M10,0c-1.381,0 -2.5,1.119 -2.5,2.5c0,0.121 0.009,0.241 0.025,0.358l-3.495,2.04c-0.423,-0.328 -0.954,-0.523 -1.53,-0.523c-1.381,0 -2.5,1.119 -2.5,2.5c0,1.381 1.119,2.5 2.5,2.5c0.576,0 1.107,-0.195 1.53,-0.523l3.496,2.037c-0.017,0.118 -0.026,0.238 -0.026,0.361c0,1.381 1.119,2.5 2.5,2.5c1.381,0 2.5,-1.119 2.5,-2.5c0,-1.381 -1.119,-2.5 -2.5,-2.5c-0.575,0 -1.105,0.194 -1.527,0.521l-3.498,-2.039c0.016,-0.116 0.025,-0.236 0.025,-0.357c0,-0.121 -0.009,-0.241 -0.025,-0.358l3.495,-2.04c0.423,0.328 0.954,0.523 1.53,0.523c1.381,-0 2.5,-1.119 2.5,-2.5c0,-1.381 -1.119,-2.5 -2.5,-2.5Z" style="fill-rule:nonzero;"/></svg>