<?xml version="1.0" encoding="UTF-8" standalone="no"?>
<!DOCTYPE svg PUBLIC "-//W3C//DTD SVG 1.1//EN" "http://www.w3.org/Graphics/SVG/1.1/DTD/svg11.dtd">
<svg width="100%" height="100%" viewBox="0 0 14 15" version="1.1" xmlns="http://www.w3.org/2000/svg" xmlns:xlink="http://www.w3.org/1999/xlink" xml:space="preserve" xmlns:serif="http://www.serif.com/" style="fill-rule:evenodd;clip-rule:evenodd;stroke-linejoin:round;stroke-miterlimit:2;">
    <g transform="matrix(1,0,0,1,-66.6667,-33.3333)">
        <g transform="matrix(0.0204545,0,0,0.0204545,65.303,32.6515)">
            <path d="M400,33.333C298.748,33.333 216.667,115.414 216.667,216.667C216.667,317.919 298.748,400 400,400C501.253,400 583.333,317.919 583.333,216.667C583.333,115.414 501.253,33.333 400,33.333Z" style="fill-rule:nonzero;"/>
        </g>
        <g transform="matrix(0.0204545,0,0,0.0204545,65.303,32.6515)">
            <path d="M233.333,466.667C141.286,466.667 66.667,541.287 66.667,633.333L66.667,733.333C66.667,751.743 81.591,766.667 100,766.667L700,766.667C718.41,766.667 733.333,751.743 733.333,733.333L733.333,633.333C733.333,541.287 658.713,466.667 566.667,466.667L233.333,466.667Z" style="fill-rule:nonzero;"/>
        </g>
    </g>
</svg>
